<svg width="124" height="57" viewBox="0 0 124 57" fill="none" xmlns="http://www.w3.org/2000/svg">
<path d="M26.536 24.344C26.008 24.056 19.048 28.328 15.064 31.352C14.152 32.072 13.384 32.6 13.384 32.552C13.384 32.504 13.576 31.688 13.816 30.68C14.056 29.672 14.248 28.184 14.296 27.368C14.296 25.88 14.296 25.832 13.624 25.304C13.288 24.968 12.952 24.584 12.952 24.392C12.952 23.288 10.36 23 8.776 23.912C6.76 25.064 4.408 28.424 3.304 31.544C2.776 33.08 2.776 33.992 3.304 34.52C4.168 35.336 5.128 34.808 7.096 32.552C7.768 31.736 9.16 30.152 10.12 29C11.128 27.848 12.136 26.84 12.376 26.696C12.808 26.456 12.808 26.456 12.712 27.944C12.664 28.808 12.376 30.536 12.04 31.832L11.464 34.184L9.976 35.624C4.936 40.328 1.528 46.184 0.664 51.608C0.327999 53.528 0.52 54.92 1.192 55.592C1.72 56.12 2.104 56.168 2.872 55.784C5.512 54.392 9.448 46.232 12.472 35.72C12.76 34.616 12.856 34.472 14.92 32.888C17.656 30.728 21.448 28.184 24.424 26.504C26.056 25.592 26.728 25.112 26.728 24.872C26.728 24.632 26.632 24.392 26.536 24.344ZM10.648 26.168C10.12 26.648 8.776 28.136 7.624 29.48C6.472 30.824 5.32 32.12 5.128 32.36C4.696 32.744 4.696 32.744 4.84 32.264C4.936 31.976 5.416 30.92 5.944 29.912C7.528 26.888 9.784 24.872 11.176 25.208C11.512 25.304 11.416 25.448 10.648 26.168ZM7.672 45.608C6.088 49.688 3.784 53.72 2.632 54.536C2.008 54.968 1.912 54.92 1.768 54.056C1.576 53.096 1.912 50.648 2.488 48.872C3.208 46.76 5.032 43.16 6.472 41.24C7.816 39.464 10.504 36.488 10.648 36.632C10.792 36.776 8.776 42.872 7.672 45.608ZM43.2423 24.536C42.9543 24.248 42.6663 24.392 40.0263 26.264C32.2983 31.736 27.2103 34.28 25.5303 33.512C25.0983 33.32 25.0023 33.176 25.0023 32.312C25.0023 31.064 25.6263 28.76 26.4902 26.504C27.2103 24.68 27.1623 24.2 26.2503 24.056C25.5303 23.96 25.2423 24.392 24.6182 26.456C22.9862 31.736 23.0342 34.04 24.8582 34.808C25.2423 35 25.7223 35.096 26.0103 35.096C28.3623 35.144 33.4023 32.408 40.6503 27.176C43.5303 25.112 43.6743 24.968 43.2423 24.536ZM26.8743 21.464C27.8343 21.272 29.3223 21.176 30.2343 21.224C31.5783 21.272 31.8663 21.224 32.0583 20.936C32.2023 20.744 32.2023 20.504 32.1543 20.408C31.9143 20.168 29.4663 19.976 26.9223 19.928C24.8582 19.928 24.6182 19.976 24.4262 20.312C24.1382 20.888 24.1382 21.08 24.5222 21.464C24.9062 21.848 24.7142 21.848 26.8743 21.464ZM64.6326 24.2C64.4406 24.008 63.5766 24.056 60.8406 24.344C58.8726 24.584 56.1366 24.776 54.6966 24.776C51.7206 24.776 51.2406 24.584 50.6166 23.096C50.1366 22.04 49.6086 21.896 48.6966 22.616C47.8806 23.24 45.7686 25.928 43.9926 28.52C43.1286 29.816 42.4086 30.824 42.4086 30.776C42.4086 30.68 42.8886 29.288 43.4166 27.656C44.2806 25.208 44.4246 24.584 44.2326 24.248C43.8966 23.528 42.9846 23.768 42.5526 24.68C42.1206 25.592 39.9606 33.128 39.9606 33.8C39.9606 34.04 40.1046 34.424 40.2486 34.616C41.0646 35.384 41.6886 34.76 43.9446 31.208C46.6806 26.792 49.3206 23.288 49.5126 23.816C49.6086 23.96 49.8966 24.392 50.2326 24.776C51.5286 26.216 53.7846 26.36 61.7046 25.352C64.2966 25.016 65.1126 24.728 64.6326 24.2ZM81.3048 24.536C81.0168 24.248 80.7288 24.392 78.0888 26.264C70.3608 31.736 65.2728 34.28 63.5928 33.512C63.1608 33.32 63.0648 33.176 63.0648 32.312C63.0648 31.064 63.6888 28.76 64.5527 26.504C65.2728 24.68 65.2248 24.2 64.3128 24.056C63.5928 23.96 63.3048 24.392 62.6807 26.456C61.0487 31.736 61.0967 34.04 62.9207 34.808C63.3048 35 63.7848 35.096 64.0728 35.096C66.4248 35.144 71.4648 32.408 78.7128 27.176C81.5928 25.112 81.7368 24.968 81.3048 24.536ZM64.9368 21.464C65.8968 21.272 67.3848 21.176 68.2968 21.224C69.6408 21.272 69.9288 21.224 70.1208 20.936C70.2648 20.744 70.2648 20.504 70.2168 20.408C69.9768 20.168 67.5288 19.976 64.9848 19.928C62.9207 19.928 62.6807 19.976 62.4887 20.312C62.2007 20.888 62.2007 21.08 62.5847 21.464C62.9688 21.848 62.7767 21.848 64.9368 21.464ZM122.951 24.2C122.807 24.152 121.223 24.92 119.447 25.928C113.735 29.144 111.623 30.104 110.135 30.104C109.703 30.104 109.271 29.96 109.127 29.864C108.695 29.432 108.839 27.8 109.511 25.496C110.183 23.192 110.183 22.424 109.511 22.232C108.215 21.896 104.903 25.256 101.063 30.824C100.151 32.168 99.3351 33.32 99.2871 33.368C99.0951 33.56 99.4791 30.728 100.103 27.848C101.351 21.656 103.607 13.208 106.247 4.904C107.303 1.592 107.447 0.919998 107.255 0.631999C106.919 0.247998 106.151 0.199999 105.863 0.584C105.719 0.727998 105.191 2.168 104.663 3.8C102.887 9.32 99.6711 15.512 96.1191 20.36C93.0471 24.44 87.8151 29.288 83.8791 31.688C82.6311 32.456 82.3911 32.504 82.8231 31.976C83.9751 30.68 84.0231 29.432 82.8711 28.904C82.2471 28.616 82.0551 28.616 80.2311 29C79.1751 29.24 78.2631 29.336 78.2631 29.24C78.2631 29.192 78.7431 28.568 79.3191 27.944C80.4711 26.696 82.5831 25.256 84.1191 24.632C85.2231 24.2 85.5591 23.576 85.0311 23C84.6471 22.52 83.8791 22.664 82.3911 23.432C78.4551 25.496 75.5271 29.48 77.1111 30.584C77.6871 31.016 78.4551 30.968 80.3271 30.488C81.1911 30.296 82.0071 30.104 82.1511 30.104C82.6791 30.104 81.6711 31.4 80.1351 32.648C79.3191 33.32 78.5991 33.992 78.5511 34.136C78.5031 34.232 78.5991 34.52 78.7911 34.664C79.0791 34.952 79.2231 34.952 80.1831 34.664C82.7751 33.944 86.6631 31.592 90.1671 28.616C93.5271 25.784 97.3671 21.032 100.247 16.184C101.159 14.648 101.879 13.448 101.879 13.544C101.879 13.592 101.399 15.752 100.775 18.344C98.6151 26.984 97.7031 32.552 98.0871 34.04C98.2311 34.808 98.8551 35.096 99.5271 34.76C99.8151 34.616 100.823 33.416 101.927 31.736C102.983 30.2 104.375 28.328 104.999 27.512C106.343 25.88 108.983 23.24 108.839 23.768C107.591 27.272 107.399 29.672 108.263 30.584C109.655 32.072 112.103 31.304 119.687 27.032C122.231 25.64 123.239 24.968 123.239 24.68C123.239 24.488 123.143 24.296 122.951 24.2Z" fill="black"/>
</svg>
